<svg id="visual" viewBox="0 0 960 540" width="960" height="540" xmlns="http://www.w3.org/2000/svg" xmlns:xlink="http://www.w3.org/1999/xlink" version="1.1"><rect x="0" y="0" width="960" height="540" fill="#f7b538"></rect><path d="M0 105L26.7 121.3C53.3 137.7 106.7 170.3 160 170.3C213.3 170.3 266.7 137.7 320 133.7C373.3 129.7 426.7 154.3 480 168.3C533.3 182.3 586.7 185.7 640 174.5C693.3 163.3 746.7 137.7 800 122.7C853.3 107.7 906.7 103.3 933.3 101.2L960 99L960 0L933.3 0C906.7 0 853.3 0 800 0C746.7 0 693.3 0 640 0C586.7 0 533.3 0 480 0C426.7 0 373.3 0 320 0C266.7 0 213.3 0 160 0C106.7 0 53.3 0 26.7 0L0 0Z" fill="#212529" stroke-linecap="round" stroke-linejoin="miter"></path></svg>