<svg xmlns="http://www.w3.org/2000/svg" version="1.1" xmlns:xlink="http://www.w3.org/1999/xlink" xmlns:svgjs="http://svgjs.dev/svgjs" viewBox="0 0 800 800"><defs><linearGradient x1="50%" y1="0%" x2="50%" y2="100%" id="ffflurry-grad" gradientTransform="rotate(270)"><stop stop-color="hsl(238, 82%, 13%)" stop-opacity="1" offset="0%"></stop><stop stop-color="hsl(1.4, 100%, 67%)" stop-opacity="1" offset="45%"></stop><stop stop-color="hsl(167, 52%, 78%)" stop-opacity="1" offset="100%"></stop></linearGradient></defs><rect width="100%" height="100%" fill="hsl(238, 82%, 13%)"></rect><g fill="url(#ffflurry-grad)"><rect width="565" height="3" x="-188.5" y="223.5" rx="1.5" transform="rotate(134, 94, 225)" opacity="0.28"></rect><rect width="574" height="3" x="8" y="204.5" rx="1.5" transform="rotate(134, 295, 206)" opacity="0.67"></rect><rect width="202" height="3" x="342" y="764.5" rx="1.5" transform="rotate(134, 443, 766)" opacity="0.71"></rect><rect width="380" height="3" x="-46" y="271.5" rx="1.5" transform="rotate(134, 144, 273)" opacity="0.88"></rect><rect width="75" height="3" x="641.5" y="666.5" rx="1.5" transform="rotate(134, 679, 668)" opacity="0.34"></rect><rect width="227" height="3" x="449.5" y="279.5" rx="1.5" transform="rotate(134, 563, 281)" opacity="0.76"></rect><rect width="496" height="3" x="-136" y="128.5" rx="1.5" transform="rotate(134, 112, 130)" opacity="0.45"></rect><rect width="141" height="3" x="-0.5" y="296.5" rx="1.5" transform="rotate(134, 70, 298)" opacity="0.50"></rect><rect width="695" height="3" x="-87.5" y="643.5" rx="1.5" transform="rotate(134, 260, 645)" opacity="0.67"></rect><rect width="415" height="3" x="12.5" y="135.5" rx="1.5" transform="rotate(134, 220, 137)" opacity="0.38"></rect><rect width="406" height="3" x="-20" y="209.5" rx="1.5" transform="rotate(134, 183, 211)" opacity="0.45"></rect><rect width="321" height="3" x="48.5" y="379.5" rx="1.5" transform="rotate(134, 209, 381)" opacity="0.50"></rect><rect width="621" height="3" x="438.5" y="351.5" rx="1.5" transform="rotate(134, 749, 353)" opacity="0.13"></rect><rect width="675" height="3" x="-77.5" y="64.5" rx="1.5" transform="rotate(134, 260, 66)" opacity="0.18"></rect><rect width="646" height="3" x="39" y="467.5" rx="1.5" transform="rotate(134, 362, 469)" opacity="0.36"></rect><rect width="428" height="3" x="0" y="456.5" rx="1.5" transform="rotate(134, 214, 458)" opacity="0.74"></rect><rect width="450" height="3" x="516" y="739.5" rx="1.5" transform="rotate(134, 741, 741)" opacity="0.83"></rect><rect width="403" height="3" x="431.5" y="330.5" rx="1.5" transform="rotate(134, 633, 332)" opacity="0.59"></rect><rect width="555" height="3" x="131.5" y="688.5" rx="1.5" transform="rotate(134, 409, 690)" opacity="0.24"></rect><rect width="541" height="3" x="386.5" y="409.5" rx="1.5" transform="rotate(134, 657, 411)" opacity="0.39"></rect><rect width="72" height="3" x="284" y="552.5" rx="1.5" transform="rotate(134, 320, 554)" opacity="0.72"></rect><rect width="206" height="3" x="72" y="33.5" rx="1.5" transform="rotate(134, 175, 35)" opacity="0.45"></rect><rect width="350" height="3" x="-120" y="53.5" rx="1.5" transform="rotate(134, 55, 55)" opacity="0.72"></rect><rect width="183" height="3" x="429.5" y="191.5" rx="1.5" transform="rotate(134, 521, 193)" opacity="0.29"></rect><rect width="1106" height="3" x="161" y="225.5" rx="1.5" transform="rotate(134, 714, 227)" opacity="0.26"></rect><rect width="348" height="3" x="-146" y="334.5" rx="1.5" transform="rotate(134, 28, 336)" opacity="0.85"></rect><rect width="210" height="3" x="551" y="553.5" rx="1.5" transform="rotate(134, 656, 555)" opacity="0.35"></rect><rect width="467" height="3" x="-204.5" y="192.5" rx="1.5" transform="rotate(134, 29, 194)" opacity="0.30"></rect><rect width="77" height="3" x="12.5" y="740.5" rx="1.5" transform="rotate(134, 51, 742)" opacity="0.52"></rect><rect width="700" height="3" x="210" y="519.5" rx="1.5" transform="rotate(134, 560, 521)" opacity="0.55"></rect><rect width="101" height="3" x="255.5" y="743.5" rx="1.5" transform="rotate(134, 306, 745)" opacity="0.81"></rect><rect width="358" height="3" x="-13" y="323.5" rx="1.5" transform="rotate(134, 166, 325)" opacity="0.35"></rect><rect width="467" height="3" x="302.5" y="55.5" rx="1.5" transform="rotate(134, 536, 57)" opacity="0.82"></rect><rect width="217" height="3" x="8.5" y="434.5" rx="1.5" transform="rotate(134, 117, 436)" opacity="0.58"></rect><rect width="517" height="3" x="492.5" y="588.5" rx="1.5" transform="rotate(134, 751, 590)" opacity="0.12"></rect><rect width="43" height="3" x="85.5" y="366.5" rx="1.5" transform="rotate(134, 107, 368)" opacity="0.34"></rect><rect width="728" height="3" x="121" y="583.5" rx="1.5" transform="rotate(134, 485, 585)" opacity="0.86"></rect><rect width="746" height="3" x="176" y="411.5" rx="1.5" transform="rotate(134, 549, 413)" opacity="0.15"></rect><rect width="691" height="3" x="119.5" y="476.5" rx="1.5" transform="rotate(134, 465, 478)" opacity="0.73"></rect><rect width="623" height="3" x="77.5" y="610.5" rx="1.5" transform="rotate(134, 389, 612)" opacity="0.77"></rect><rect width="170" height="3" x="121" y="548.5" rx="1.5" transform="rotate(134, 206, 550)" opacity="0.69"></rect><rect width="555" height="3" x="237.5" y="690.5" rx="1.5" transform="rotate(134, 515, 692)" opacity="0.49"></rect><rect width="535" height="3" x="328.5" y="749.5" rx="1.5" transform="rotate(134, 596, 751)" opacity="0.58"></rect><rect width="287" height="3" x="509.5" y="95.5" rx="1.5" transform="rotate(134, 653, 97)" opacity="0.89"></rect><rect width="228" height="3" x="-76" y="491.5" rx="1.5" transform="rotate(134, 38, 493)" opacity="0.94"></rect><rect width="791" height="3" x="-27.5" y="48.5" rx="1.5" transform="rotate(134, 368, 50)" opacity="0.43"></rect><rect width="253" height="3" x="283.5" y="140.5" rx="1.5" transform="rotate(134, 410, 142)" opacity="0.43"></rect><rect width="439" height="3" x="-36.5" y="756.5" rx="1.5" transform="rotate(134, 183, 758)" opacity="0.25"></rect><rect width="123" height="3" x="573.5" y="478.5" rx="1.5" transform="rotate(134, 635, 480)" opacity="0.53"></rect><rect width="461" height="3" x="-129.5" y="537.5" rx="1.5" transform="rotate(134, 101, 539)" opacity="0.42"></rect><rect width="183" height="3" x="227.5" y="376.5" rx="1.5" transform="rotate(134, 319, 378)" opacity="0.34"></rect><rect width="690" height="3" x="-288" y="621.5" rx="1.5" transform="rotate(134, 57, 623)" opacity="0.82"></rect><rect width="142" height="3" x="518" y="618.5" rx="1.5" transform="rotate(134, 589, 620)" opacity="0.82"></rect><rect width="532" height="3" x="-118" y="673.5" rx="1.5" transform="rotate(134, 148, 675)" opacity="0.08"></rect><rect width="542" height="3" x="117" y="268.5" rx="1.5" transform="rotate(134, 388, 270)" opacity="0.97"></rect><rect width="186" height="3" x="-60" y="412.5" rx="1.5" transform="rotate(134, 33, 414)" opacity="0.10"></rect><rect width="163" height="3" x="167.5" y="296.5" rx="1.5" transform="rotate(134, 249, 298)" opacity="0.94"></rect><rect width="329" height="3" x="589.5" y="75.5" rx="1.5" transform="rotate(134, 754, 77)" opacity="0.57"></rect><rect width="795" height="3" x="349.5" y="473.5" rx="1.5" transform="rotate(134, 747, 475)" opacity="0.98"></rect><rect width="273" height="3" x="317.5" y="353.5" rx="1.5" transform="rotate(134, 454, 355)" opacity="0.34"></rect></g></svg>